<svg xmlns="http://www.w3.org/2000/svg" xmlns:xlink="http://www.w3.org/1999/xlink" viewBox="0,0,256,256" width="144px" height="144px"><g transform="translate(25.6,25.6) scale(0.8,0.8)"><g fill="none" fill-rule="nonzero" stroke="none" stroke-width="1" stroke-linecap="butt" stroke-linejoin="miter" stroke-miterlimit="10" stroke-dasharray="" stroke-dashoffset="0" font-family="none" font-weight="none" font-size="none" text-anchor="none" style="mix-blend-mode: normal"><g transform="scale(5.33333,5.33333)"><path d="M21.906,31.772l2.601,-2.724l2.6,2.724v11.228h-5.201z" fill="#546e7a"></path><path d="M17.737,29.058l3.705,-0.675l0.503,3.732l-6.6,9.084l-4.207,-3.058z" fill="#f50057"></path><path d="M15.962,24.409l3.393,1.632l-1.786,3.315l-10.679,3.469l-1.607,-4.946z" fill="#d500f9"></path><path d="M17.256,19.607l1.786,3.315l-3.393,1.632l-10.679,-3.47l1.607,-4.947z" fill="#29b6f6"></path><path d="M21.126,16.482l-0.503,3.732l-3.705,-0.675l-6.6,-9.084l4.208,-3.057z" fill="#00e5ff"></path><path d="M26.094,16.228l-2.601,2.724l-2.6,-2.724v-11.228h5.201z" fill="#546e7a"></path><path d="M30.262,18.943l-3.704,0.675l-0.503,-3.732l6.599,-9.084l4.208,3.057z" fill="#f50057"></path><path d="M32.039,23.59l-3.394,-1.632l1.786,-3.315l10.679,-3.469l1.607,4.946z" fill="#d500f9"></path><path d="M30.744,28.393l-1.786,-3.315l3.393,-1.631l10.679,3.469l-1.607,4.947z" fill="#29b6f6"></path><path d="M26.874,31.518l0.504,-3.732l3.704,0.675l6.6,9.084l-4.208,3.057z" fill="#00e5ff"></path></g></g><g fill="#030303" fill-rule="nonzero" stroke="none" stroke-width="1" stroke-linecap="butt" stroke-linejoin="miter" stroke-miterlimit="10" stroke-dasharray="" stroke-dashoffset="0" font-family="none" font-weight="none" font-size="none" text-anchor="none" style="mix-blend-mode: normal"><g><path d="M98.32222,249.36167h3.65v4.12l-3.65,0.7v19.06c0,3.29333 -1.07333,5.90667 -3.22,7.84c-2.15333,1.92667 -4.87,2.89 -8.15,2.89v0c-3.56,0 -6.38,-0.86667 -8.46,-2.6c-2.08,-1.73333 -3.08,-4.28667 -3,-7.66v0l0.05,-0.14h6.65c0,1.79333 0.43,3.1 1.29,3.92c0.86,0.82 2.01667,1.23 3.47,1.23v0c1.26667,0 2.34,-0.48667 3.22,-1.46c0.88667,-0.98 1.33,-2.32 1.33,-4.02v0v-19.06l-3.66,-0.7v-4.12zM148.12222,249.36167v4.12l-2.81,0.35l-6.91,29.65h-6.35l-6.26,-22.52h-0.14l-6.26,22.52h-6.35l-6.96,-29.65l-2.79,-0.35v-4.12h12.56v4.12l-3.12,0.54l3.92,18.7l0.14,0.03l6.4,-23.39h5.03l6.45,23.39l0.14,-0.03l3.89,-18.7l-3.12,-0.54v-4.12zM150.09222,249.36167h30.42v9.09h-5.25l-0.28,-3.82h-6.28v24.05l3.66,0.7v4.1h-14.16v-4.1l3.66,-0.7v-24.05h-6.26l-0.28,3.82h-5.23z"></path></g></g></g></svg>