<svg xmlns="http://www.w3.org/2000/svg" xmlns:xlink="http://www.w3.org/1999/xlink" viewBox="0,0,256,256" width="480px" height="480px"><g fill="#b71c1c" fill-rule="nonzero" stroke="none" stroke-width="1" stroke-linecap="butt" stroke-linejoin="miter" stroke-miterlimit="10" stroke-dasharray="" stroke-dashoffset="0" font-family="none" font-weight="none" font-size="none" text-anchor="none" style="mix-blend-mode: normal"><g transform="scale(5.33333,5.33333)"><path d="M18.001,29.994v5.006l3.994,-0.005v-4.996l-1.994,2.005z"></path><path d="M46.586,21.441c-0.177,-0.221 -0.84,-0.354 -0.84,-0.354l-0.796,1.592l0.088,-1.769c0,0 -4.821,-1.946 -8.668,-2.875c-3.847,-0.929 -6.58,-1.291 -8.048,-1.326c-1.062,-0.026 -3.097,0.088 -3.097,0.088l1.725,1.636c0,0 -2.167,-0.885 -2.963,-1.194c-0.796,-0.309 -2.034,-0.31 -2.654,-0.354c-0.619,-0.044 -1.15,0.221 -1.15,0.221c0,0 -0.575,0.442 0.752,3.405c1.088,2.43 3.719,3.965 4.632,4.44c-5.917,-1.284 -6.578,-7.005 -6.578,-7.005c0,0 -3.603,-0.037 -8.757,1.769c-5.824,2.041 -9.288,5.971 -9.288,5.971c0,0 4.6,-1.548 8.492,-0.487c3.892,1.061 5.497,3.788 5.497,3.788l0.107,-3.007h2.936l2.251,2.713l1.758,-2.677h2.971c0,0 0.015,0 0.036,-0.001v5.979c0,0 2.014,-1.665 3.372,-2.328c1.813,-0.885 6.015,-0.619 6.015,-0.619c0,0 -0.067,-0.47 -0.315,-0.967c-0.352,-0.704 0.573,-0.935 0.573,-0.935c0,0 8.278,-1.813 9.206,-1.99c0.929,-0.177 1.592,-0.575 1.813,-0.796c0.221,-0.221 0.84,-1.769 0.973,-1.946c0.134,-0.176 0.134,-0.751 -0.043,-0.972zM21.2,18.389c0.221,-0.354 0.885,-0.487 1.902,0c1.2,0.574 2.654,2.477 2.654,2.477l-1.238,-0.575l0.619,1.106l-1.106,-0.619l0.973,1.415l-0.663,-0.177l0.885,1.459c-3.849,-2.211 -4.247,-4.732 -4.026,-5.086zM37.918,20.556l-0.663,0.486c0,0 -2.654,0.354 -3.361,0.31c-0.708,-0.044 -1.15,-1.106 -1.15,-1.106l-1.459,-0.885zM32.92,26.748c-0.487,0.398 -0.044,1.371 -0.044,1.371c-0.663,-0.486 -1.46,-1.415 -0.752,-1.946c0.708,-0.531 5.882,-1.194 5.882,-1.194c0,0 -4.6,1.371 -5.086,1.769z"></path></g></g><g fill="#030303" fill-rule="nonzero" stroke="none" stroke-width="1" stroke-linecap="butt" stroke-linejoin="miter" stroke-miterlimit="10" stroke-dasharray="" stroke-dashoffset="0" font-family="none" font-weight="none" font-size="none" text-anchor="none" style="mix-blend-mode: normal"><g><path d="M64.385,233.45167l0.34,-10.75l-0.09,-0.02l-8.58,21.27h-2.39l-8.59,-21.25l-0.09,0.02l0.37,10.73v7.7l2.97,0.51v2.29h-9.54v-2.29l2.98,-0.51v-20.91l-2.98,-0.51v-2.32h2.98h4.59l8.46,21.57h0.11l8.44,-21.57h7.58v2.32l-2.97,0.51v20.91l2.97,0.51v2.29h-9.53v-2.29l2.97,-0.51zM73.865,234.31167v-0.4c0,-2.92 0.79,-5.32333 2.37,-7.21c1.58,-1.89333 3.72333,-2.84 6.43,-2.84v0c2.72667,0 4.88,0.94333 6.46,2.83c1.58667,1.88667 2.38,4.29333 2.38,7.22v0v0.4c0,2.94 -0.79,5.34667 -2.37,7.22c-1.58,1.87333 -3.72333,2.81 -6.43,2.81v0c-2.73333,0 -4.89,-0.94 -6.47,-2.82c-1.58,-1.88 -2.37,-4.28333 -2.37,-7.21zM77.455,233.91167v0.4c0,2.09333 0.44,3.82 1.32,5.18c0.88,1.36 2.19,2.04 3.93,2.04v0c1.7,0 2.99333,-0.68 3.88,-2.04c0.88667,-1.36 1.33,-3.08667 1.33,-5.18v0v-0.4c0,-2.06667 -0.44333,-3.78667 -1.33,-5.16c-0.88667,-1.37333 -2.19333,-2.06 -3.92,-2.06v0c-1.72667,0 -3.02667,0.68667 -3.9,2.06c-0.87333,1.37333 -1.31,3.09333 -1.31,5.16zM94.265,243.95167v-2.29l2.97,-0.51v-14.1l-2.97,-0.51v-2.31h6.18l0.25,2.93c0.65333,-1.04 1.47667,-1.85 2.47,-2.43c0.99333,-0.58 2.12,-0.87 3.38,-0.87v0c2.12667,0 3.77333,0.62333 4.94,1.87c1.16667,1.24667 1.75,3.17 1.75,5.77v0v9.65l2.97,0.51v2.29h-9.53v-2.29l2.97,-0.51v-9.57c0,-1.74 -0.34333,-2.97333 -1.03,-3.7c-0.68667,-0.73333 -1.73333,-1.1 -3.14,-1.1v0c-1.03333,0 -1.95,0.25 -2.75,0.75c-0.79333,0.5 -1.42667,1.18 -1.9,2.04v0v11.58l2.97,0.51v2.29zM118.655,234.84167v-0.38c0,-3.17333 0.69,-5.73333 2.07,-7.68c1.38667,-1.94667 3.30333,-2.92 5.75,-2.92v0c1.24,0 2.32667,0.24333 3.26,0.73c0.93333,0.48667 1.71667,1.19333 2.35,2.12v0l0.33,-2.48h3.03v19.47c0,2.55333 -0.71333,4.56 -2.14,6.02c-1.42,1.46667 -3.44333,2.2 -6.07,2.2v0c-0.94667,0 -1.97333,-0.13 -3.08,-0.39c-1.10667,-0.26 -2.08,-0.61667 -2.92,-1.07v0l0.93,-2.79c0.67333,0.35333 1.46333,0.64667 2.37,0.88c0.91333,0.22667 1.80333,0.34 2.67,0.34v0c1.6,0 2.77333,-0.45 3.52,-1.35c0.74667,-0.89333 1.12,-2.17333 1.12,-3.84v0v-1.88c-0.64,0.82667 -1.41,1.45333 -2.31,1.88c-0.9,0.42667 -1.93333,0.64 -3.1,0.64v0c-2.42,0 -4.32333,-0.87667 -5.71,-2.63c-1.38,-1.74667 -2.07,-4.03667 -2.07,-6.87zM122.245,234.46167v0.38c0,1.98 0.42,3.57 1.26,4.77c0.83333,1.20667 2.10667,1.81 3.82,1.81v0c1.08667,0 1.99333,-0.24667 2.72,-0.74c0.72667,-0.49333 1.32667,-1.19 1.8,-2.09v0v-9.07c-0.46,-0.84 -1.06,-1.50667 -1.8,-2c-0.74,-0.49333 -1.63333,-0.74 -2.68,-0.74v0c-1.71333,0 -2.99667,0.71667 -3.85,2.15c-0.84667,1.43333 -1.27,3.27667 -1.27,5.53zM139.775,234.31167v-0.4c0,-2.92 0.79,-5.32333 2.37,-7.21c1.58,-1.89333 3.72667,-2.84 6.44,-2.84v0c2.72,0 4.87333,0.94333 6.46,2.83c1.58667,1.88667 2.38,4.29333 2.38,7.22v0v0.4c0,2.94 -0.79,5.34667 -2.37,7.22c-1.58,1.87333 -3.72667,2.81 -6.44,2.81v0c-2.73333,0 -4.89,-0.94 -6.47,-2.82c-1.58,-1.88 -2.37,-4.28333 -2.37,-7.21zM143.365,233.91167v0.4c0,2.09333 0.44333,3.82 1.33,5.18c0.88,1.36 2.18667,2.04 3.92,2.04v0c1.70667,0 3.00333,-0.68 3.89,-2.04c0.88667,-1.36 1.33,-3.08667 1.33,-5.18v0v-0.4c0,-2.06667 -0.44333,-3.78667 -1.33,-5.16c-0.88667,-1.37333 -2.19333,-2.06 -3.92,-2.06v0c-1.72667,0 -3.02667,0.68667 -3.9,2.06c-0.88,1.37333 -1.32,3.09333 -1.32,5.16zM160.725,234.31167v-0.4c0,-2.92 0.79,-5.32333 2.37,-7.21c1.58,-1.89333 3.72333,-2.84 6.43,-2.84v0c2.72667,0 4.88333,0.94333 6.47,2.83c1.58667,1.88667 2.38,4.29333 2.38,7.22v0v0.4c0,2.94 -0.79,5.34667 -2.37,7.22c-1.58,1.87333 -3.72667,2.81 -6.44,2.81v0c-2.73333,0 -4.89,-0.94 -6.47,-2.82c-1.58,-1.88 -2.37,-4.28333 -2.37,-7.21zM164.315,233.91167v0.4c0,2.09333 0.44,3.82 1.32,5.18c0.88,1.36 2.19,2.04 3.93,2.04v0c1.7,0 2.99333,-0.68 3.88,-2.04c0.88667,-1.36 1.33,-3.08667 1.33,-5.18v0v-0.4c0,-2.06667 -0.44333,-3.78667 -1.33,-5.16c-0.88667,-1.37333 -2.19333,-2.06 -3.92,-2.06v0c-1.72,0 -3.02,0.68667 -3.9,2.06c-0.87333,1.37333 -1.31,3.09333 -1.31,5.16zM196.565,226.07167l0.18,4.36h-2.7l-0.58,-2.37c-0.44,-0.41333 -0.99,-0.74667 -1.65,-1c-0.66,-0.24667 -1.41,-0.37 -2.25,-0.37v0c-1.28,0 -2.23,0.28 -2.85,0.84c-0.62,0.56 -0.93,1.23333 -0.93,2.02v0c0,0.78 0.27333,1.39333 0.82,1.84c0.54667,0.45333 1.66,0.85667 3.34,1.21v0c2.49333,0.53333 4.34667,1.25667 5.56,2.17c1.21333,0.92 1.82,2.15333 1.82,3.7v0c0,1.74667 -0.70667,3.16 -2.12,4.24c-1.41333,1.08667 -3.26333,1.63 -5.55,1.63v0c-1.49333,0 -2.83667,-0.17333 -4.03,-0.52c-1.19333,-0.34667 -2.25667,-0.85 -3.19,-1.51v0l-0.02,-4.5h2.7l0.67,2.64c0.41333,0.38 0.97667,0.65333 1.69,0.82c0.71333,0.17333 1.44,0.26 2.18,0.26v0c1.27333,0 2.27333,-0.26 3,-0.78c0.72,-0.51333 1.08,-1.19 1.08,-2.03v0c0,-0.78667 -0.3,-1.43667 -0.9,-1.95c-0.6,-0.50667 -1.74,-0.95 -3.42,-1.33v0c-2.39333,-0.52 -4.19667,-1.23 -5.41,-2.13c-1.22,-0.9 -1.83,-2.11667 -1.83,-3.65v0c0,-1.6 0.68667,-2.96667 2.06,-4.1c1.36667,-1.13333 3.14333,-1.7 5.33,-1.7v0c1.49333,0 2.83667,0.19667 4.03,0.59c1.18667,0.38667 2.17667,0.92667 2.97,1.62zM209.685,244.34167v0c-2.74667,0 -4.93,-0.91667 -6.55,-2.75c-1.62,-1.82667 -2.43,-4.2 -2.43,-7.12v0v-0.8c0,-2.80667 0.83333,-5.14333 2.5,-7.01c1.67333,-1.86667 3.65333,-2.8 5.94,-2.8v0c2.64667,0 4.65333,0.80333 6.02,2.41c1.36667,1.60667 2.05,3.74667 2.05,6.42v0v2.24h-12.8l-0.05,0.09c0.03333,1.89333 0.51333,3.45333 1.44,4.68c0.92667,1.22 2.22,1.83 3.88,1.83v0c1.22,0 2.28667,-0.17333 3.2,-0.52c0.92,-0.34667 1.71333,-0.82333 2.38,-1.43v0l1.4,2.33c-0.7,0.68 -1.63,1.25333 -2.79,1.72c-1.16,0.47333 -2.55667,0.71 -4.19,0.71zM209.145,226.69167v0c-1.20667,0 -2.23333,0.50667 -3.08,1.52c-0.85333,1.01333 -1.37667,2.28667 -1.57,3.82v0l0.03,0.09h9.1v-0.47c0,-1.41333 -0.37667,-2.59333 -1.13,-3.54c-0.75333,-0.94667 -1.87,-1.42 -3.35,-1.42z"></path></g></g></svg>